<svg width="27" height="27" viewBox="0 0 27 27" fill="none" xmlns="http://www.w3.org/2000/svg">
<rect width="27" height="27" fill="#1C3B69"/>
<path d="M17.153 7.45C17.153 8.36499 16.7613 9.24251 16.064 9.88951C15.3668 10.5365 14.4211 10.9 13.435 10.9C12.4489 10.9 11.5032 10.5365 10.806 9.88951C10.1087 9.24251 9.717 8.36499 9.717 7.45C9.717 6.535 10.1087 5.65748 10.806 5.01048C11.5032 4.36348 12.4489 4 13.435 4C14.4211 4 15.3668 4.36348 16.064 5.01048C16.7613 5.65748 17.153 6.535 17.153 7.45V7.45ZM6 20.4385C6.03186 18.6283 6.8292 16.9022 8.22007 15.6325C9.61093 14.3628 11.4839 13.6512 13.435 13.6512C15.3861 13.6512 17.2591 14.3628 18.6499 15.6325C20.0408 16.9022 20.8381 18.6283 20.87 20.4385C18.5375 21.431 16.0011 21.9432 13.435 21.94C10.7818 21.94 8.26352 21.4027 6 20.4385Z" stroke="white" stroke-width="1.5" stroke-linecap="round" stroke-linejoin="round"/>
</svg>
