<svg width="18" height="22" viewBox="0 0 18 22" fill="none" xmlns="http://www.w3.org/2000/svg">
<path fill-rule="evenodd" clip-rule="evenodd" d="M3 0C2.20435 0 1.44129 0.289731 0.87868 0.805456C0.31607 1.32118 0 2.02065 0 2.75V19.25C0 19.9793 0.31607 20.6788 0.87868 21.1945C1.44129 21.7103 2.20435 22 3 22H15C15.7956 22 16.5587 21.7103 17.1213 21.1945C17.6839 20.6788 18 19.9793 18 19.25V7.44425C17.9998 6.71496 17.6836 6.0156 17.121 5.5L12 0.80575C11.4375 0.289989 10.6746 0.000155753 9.879 0H3ZM10.5 8.25C10.5 7.88533 10.342 7.53559 10.0607 7.27773C9.77936 7.01987 9.39782 6.875 9 6.875C8.60218 6.875 8.22064 7.01987 7.93934 7.27773C7.65804 7.53559 7.5 7.88533 7.5 8.25V11H4.5C4.10218 11 3.72064 11.1449 3.43934 11.4027C3.15804 11.6606 3 12.0103 3 12.375C3 12.7397 3.15804 13.0894 3.43934 13.3473C3.72064 13.6051 4.10218 13.75 4.5 13.75H7.5V16.5C7.5 16.8647 7.65804 17.2144 7.93934 17.4723C8.22064 17.7301 8.60218 17.875 9 17.875C9.39782 17.875 9.77936 17.7301 10.0607 17.4723C10.342 17.2144 10.5 16.8647 10.5 16.5V13.75H13.5C13.8978 13.75 14.2794 13.6051 14.5607 13.3473C14.842 13.0894 15 12.7397 15 12.375C15 12.0103 14.842 11.6606 14.5607 11.4027C14.2794 11.1449 13.8978 11 13.5 11H10.5V8.25Z" fill="white"/>
</svg>
