<svg width="1312" height="720" viewBox="0 0 1312 720" fill="none" xmlns="http://www.w3.org/2000/svg">
<rect width="1312" height="720" fill="white"/>
<rect width="309" height="720" fill="#0F2039"/>
<rect x="309" width="443" height="720" fill="#F7FAFF"/>
<rect x="30" y="71" width="184" height="30" rx="7" fill="#1C3B69"/>
<rect x="30" y="189" width="204" height="30" rx="7" fill="#1C3B69"/>
<rect x="30" y="248" width="166" height="30" rx="7" fill="#1C3B69"/>
<rect x="30" y="130" width="218" height="30" rx="7" fill="#1C3B69"/>
<rect x="357" y="97" width="245" height="33" rx="2" fill="white"/>
<path d="M379.832 35.2727V60H375.316L364.558 44.4368H364.377V60H359.149V35.2727H363.737L374.411 50.8239H374.628V35.2727H379.832ZM392.434 60.3622C390.558 60.3622 388.936 59.9638 387.568 59.1669C386.208 58.362 385.157 57.2431 384.417 55.8104C383.676 54.3696 383.306 52.6993 383.306 50.7997C383.306 48.884 383.676 47.2098 384.417 45.777C385.157 44.3362 386.208 43.2173 387.568 42.4205C388.936 41.6155 390.558 41.2131 392.434 41.2131C394.309 41.2131 395.927 41.6155 397.287 42.4205C398.656 43.2173 399.71 44.3362 400.451 45.777C401.191 47.2098 401.562 48.884 401.562 50.7997C401.562 52.6993 401.191 54.3696 400.451 55.8104C399.71 57.2431 398.656 58.362 397.287 59.1669C395.927 59.9638 394.309 60.3622 392.434 60.3622ZM392.458 56.3778C393.311 56.3778 394.023 56.1364 394.595 55.6534C395.166 55.1624 395.597 54.4943 395.887 53.6491C396.185 52.804 396.334 51.8421 396.334 50.7635C396.334 49.6849 396.185 48.723 395.887 47.8778C395.597 47.0327 395.166 46.3646 394.595 45.8736C394.023 45.3826 393.311 45.1371 392.458 45.1371C391.597 45.1371 390.872 45.3826 390.285 45.8736C389.705 46.3646 389.266 47.0327 388.969 47.8778C388.679 48.723 388.534 49.6849 388.534 50.7635C388.534 51.8421 388.679 52.804 388.969 53.6491C389.266 54.4943 389.705 55.1624 390.285 55.6534C390.872 56.1364 391.597 56.3778 392.458 56.3778ZM414.77 41.4545V45.3182H403.602V41.4545H414.77ZM406.138 37.0114H411.281V54.3011C411.281 54.776 411.354 55.1463 411.498 55.4119C411.643 55.6695 411.845 55.8506 412.102 55.9553C412.368 56.0599 412.674 56.1122 413.02 56.1122C413.261 56.1122 413.503 56.0921 413.744 56.0518C413.986 56.0036 414.171 55.9673 414.3 55.9432L415.108 59.7706C414.851 59.8511 414.489 59.9437 414.022 60.0483C413.555 60.161 412.988 60.2294 412.319 60.2536C411.08 60.3018 409.993 60.1368 409.059 59.7585C408.134 59.3802 407.413 58.7926 406.898 57.9957C406.383 57.1989 406.13 56.1927 406.138 54.9773V37.0114ZM426.373 60.3622C424.466 60.3622 422.824 59.9759 421.447 59.2031C420.079 58.4223 419.024 57.3196 418.284 55.8949C417.543 54.4621 417.173 52.7678 417.173 50.8118C417.173 48.9041 417.543 47.2299 418.284 45.7891C419.024 44.3482 420.067 43.2254 421.411 42.4205C422.763 41.6155 424.349 41.2131 426.168 41.2131C427.392 41.2131 428.531 41.4103 429.585 41.8047C430.648 42.1911 431.573 42.7746 432.362 43.5554C433.159 44.3362 433.779 45.3182 434.221 46.5014C434.664 47.6766 434.885 49.053 434.885 50.6307V52.0433H419.226V48.8558H430.044C430.044 48.1153 429.883 47.4593 429.561 46.8878C429.239 46.3163 428.792 45.8696 428.221 45.5476C427.657 45.2176 427.001 45.0526 426.253 45.0526C425.472 45.0526 424.78 45.2337 424.176 45.5959C423.58 45.95 423.113 46.429 422.775 47.0327C422.437 47.6283 422.264 48.2924 422.256 49.0249V52.0554C422.256 52.973 422.425 53.7659 422.763 54.4339C423.109 55.102 423.596 55.6172 424.224 55.9794C424.852 56.3416 425.597 56.5227 426.458 56.5227C427.029 56.5227 427.553 56.4422 428.028 56.2812C428.502 56.1203 428.909 55.8788 429.247 55.5568C429.585 55.2348 429.843 54.8404 430.02 54.3736L434.777 54.6875C434.535 55.8305 434.04 56.8286 433.292 57.6818C432.551 58.527 431.593 59.187 430.418 59.6619C429.251 60.1288 427.903 60.3622 426.373 60.3622ZM453.672 46.7429L448.964 47.0327C448.883 46.6302 448.71 46.268 448.444 45.946C448.179 45.616 447.829 45.3544 447.394 45.1612C446.967 44.96 446.456 44.8594 445.861 44.8594C445.064 44.8594 444.392 45.0284 443.844 45.3665C443.297 45.6965 443.023 46.1392 443.023 46.6946C443.023 47.1373 443.2 47.5116 443.555 47.8175C443.909 48.1233 444.516 48.3688 445.378 48.554L448.734 49.2301C450.537 49.6004 451.881 50.196 452.767 51.017C453.652 51.8381 454.095 52.9167 454.095 54.2528C454.095 55.4683 453.737 56.5348 453.02 57.4524C452.312 58.37 451.338 59.0864 450.099 59.6016C448.867 60.1087 447.446 60.3622 445.836 60.3622C443.381 60.3622 441.425 59.8511 439.969 58.8288C438.52 57.7985 437.671 56.398 437.421 54.6271L442.48 54.3615C442.633 55.1101 443.003 55.6816 443.591 56.076C444.178 56.4624 444.931 56.6555 445.849 56.6555C446.75 56.6555 447.474 56.4825 448.022 56.1364C448.577 55.7822 448.859 55.3274 448.867 54.772C448.859 54.3052 448.662 53.9228 448.275 53.625C447.889 53.3191 447.293 53.0857 446.488 52.9247L443.277 52.2848C441.466 51.9226 440.117 51.2947 439.232 50.4013C438.355 49.5078 437.916 48.3688 437.916 46.9844C437.916 45.7931 438.238 44.7668 438.882 43.9055C439.534 43.0443 440.448 42.3802 441.623 41.9134C442.806 41.4465 444.19 41.2131 445.776 41.2131C448.118 41.2131 449.962 41.7081 451.306 42.6982C452.658 43.6882 453.447 45.0365 453.672 46.7429Z" fill="black"/>
</svg>
