<svg width="100" height="28" viewBox="0 0 100 28" fill="none" xmlns="http://www.w3.org/2000/svg">
<path d="M11.696 1.84V4.176H2.672V10.704H10.64V13.04H2.672V22H0.0480001V1.84H11.696ZM14.222 0.719999H16.654V3.632H14.222V0.719999ZM14.222 6.512H16.654V22H14.222V6.512ZM19.5658 0.719999H21.9978V22H19.5658V0.719999ZM24.9095 0.719999H27.3415V22H24.9095V0.719999ZM37.548 22V1.84H44.748C46.7107 1.84 48.204 2.37333 49.228 3.44C50.2733 4.48533 50.796 5.904 50.796 7.696C50.796 9.488 50.252 10.9387 49.164 12.048C48.076 13.136 46.604 13.68 44.748 13.68H40.172V22H37.548ZM44.684 11.312C45.7293 11.312 46.5507 10.9813 47.148 10.32C47.7667 9.65867 48.076 8.784 48.076 7.696C48.076 6.58667 47.7773 5.72267 47.18 5.104C46.604 4.48533 45.772 4.176 44.684 4.176H40.172V11.312H44.684ZM58.1538 6.16C59.7111 6.16 60.8844 6.53333 61.6738 7.28C62.4631 8.02667 62.8578 9.09333 62.8578 10.48V19.184C62.8578 19.504 62.9324 19.76 63.0818 19.952C63.2311 20.1227 63.4124 20.208 63.6258 20.208H64.6178V21.872C64.1911 22.1067 63.6578 22.224 63.0178 22.224C62.3991 22.224 61.8658 22.0533 61.4178 21.712C60.9911 21.3707 60.7138 20.912 60.5858 20.336H60.4258C60.0204 20.976 59.4871 21.4773 58.8258 21.84C58.1858 22.1813 57.4604 22.352 56.6498 22.352C55.6044 22.352 54.6658 22.0427 53.8338 21.424C53.0018 20.8053 52.5858 19.664 52.5858 18C52.5858 16.016 53.2578 14.6613 54.6018 13.936C55.9458 13.1893 57.8871 12.816 60.4258 12.816V10.832C60.4258 10.0213 60.2444 9.40267 59.8818 8.976C59.5404 8.54933 58.9111 8.336 57.9938 8.336C57.1404 8.336 56.5218 8.57067 56.1378 9.04C55.7751 9.50933 55.5938 10.0747 55.5938 10.736V11.12H53.2258C53.2044 11.0133 53.1938 10.7893 53.1938 10.448C53.1938 9.08267 53.6418 8.02667 54.5378 7.28C55.4551 6.53333 56.6604 6.16 58.1538 6.16ZM60.4258 14.992C58.6551 14.992 57.3218 15.1947 56.4258 15.6C55.5511 15.984 55.1138 16.7307 55.1138 17.84C55.1138 18.6933 55.2844 19.3013 55.6258 19.664C55.9884 20.0267 56.5218 20.208 57.2258 20.208C58.0578 20.208 58.7938 19.8667 59.4338 19.184C60.0951 18.5013 60.4258 17.5627 60.4258 16.368V14.992ZM72.456 6.16C73.9707 6.16 75.144 6.832 75.976 8.176C76.8293 9.49867 77.256 11.536 77.256 14.288C77.256 16.9547 76.8187 18.9707 75.944 20.336C75.0907 21.68 73.9813 22.352 72.616 22.352C71.8693 22.352 71.1973 22.2027 70.6 21.904C70.024 21.584 69.5973 21.1573 69.32 20.624H69.192V27.088H66.76V6.512H68.584L68.936 8.336H69.064C69.4267 7.632 69.896 7.09867 70.472 6.736C71.0693 6.352 71.7307 6.16 72.456 6.16ZM71.944 8.336C70.1093 8.336 69.192 10.128 69.192 13.712V14.8C69.192 18.4053 70.1093 20.208 71.944 20.208C72.8827 20.208 73.576 19.7813 74.024 18.928C74.4933 18.0747 74.728 16.6987 74.728 14.8V13.712C74.728 11.8133 74.4933 10.448 74.024 9.616C73.576 8.76267 72.8827 8.336 71.944 8.336ZM85.4463 6.16C87.1956 6.16 88.4863 6.736 89.3183 7.888C90.1503 9.04 90.5663 10.896 90.5663 13.456V14.992H82.1823C82.2036 16.784 82.4809 18.1067 83.0143 18.96C83.5689 19.792 84.4223 20.208 85.5743 20.208C86.3423 20.208 86.9609 19.8987 87.4303 19.28C87.9209 18.64 88.1663 17.7973 88.1663 16.752H90.5663C90.5663 18.4587 90.0969 19.824 89.1583 20.848C88.2409 21.8507 87.0249 22.352 85.5103 22.352C83.5263 22.352 82.0436 21.712 81.0623 20.432C80.1023 19.152 79.6223 17.104 79.6223 14.288C79.6223 11.5147 80.1023 9.46667 81.0623 8.144C82.0223 6.82133 83.4836 6.16 85.4463 6.16ZM85.4463 8.336C84.4009 8.336 83.6223 8.70933 83.1102 9.456C82.6196 10.1813 82.3209 11.3013 82.2143 12.816H88.0383C88.0383 9.82933 87.1743 8.336 85.4463 8.336ZM98.5325 6.16C98.7885 6.16 99.0232 6.192 99.2365 6.256C99.4498 6.32 99.5885 6.36267 99.6525 6.384V8.912H98.8525C98.0205 8.912 97.3378 9.2 96.8045 9.776C96.2712 10.352 96.0045 11.28 96.0045 12.56V22H93.5725V6.512H95.3965L95.7485 8.56H95.9085C96.1218 7.87733 96.4418 7.312 96.8685 6.864C97.2952 6.39467 97.8498 6.16 98.5325 6.16Z" fill="black"/>
</svg>
