<svg width="168" height="54" viewBox="0 0 168 54" fill="none" xmlns="http://www.w3.org/2000/svg">
<rect x="4.41379" y="2" width="27.5862" height="39.9178" rx="2" fill="#9CA9B0"/>
<rect y="7.79453" width="27.5862" height="41.2055" rx="2" fill="#80ADC7"/>
<path d="M6.34483 14.5548C8.82759 17.4521 0.275869 13.5891 7.44828 17.1302C14.6207 20.6712 18.2069 22.6028 13.7931 24.5343C9.37931 26.4658 2.20691 28.3973 7.44828 31.6165C12.6897 34.8356 22.6207 32.5822 20.6897 36.7671C18.7586 40.9521 11.3103 38.3767 10.7586 41.9178" stroke="black"/>
<path d="M79.696 16.84V19.176H70.672V25.704H78.64V28.04H70.672V37H68.048V16.84H79.696ZM82.222 15.72H84.654V18.632H82.222V15.72ZM82.222 21.512H84.654V37H82.222V21.512ZM87.5658 15.72H89.9978V37H87.5658V15.72ZM92.9095 15.72H95.3415V37H92.9095V15.72ZM105.548 37V16.84H112.748C114.711 16.84 116.204 17.3733 117.228 18.44C118.273 19.4853 118.796 20.904 118.796 22.696C118.796 24.488 118.252 25.9387 117.164 27.048C116.076 28.136 114.604 28.68 112.748 28.68H108.172V37H105.548ZM112.684 26.312C113.729 26.312 114.551 25.9813 115.148 25.32C115.767 24.6587 116.076 23.784 116.076 22.696C116.076 21.5867 115.777 20.7227 115.18 20.104C114.604 19.4853 113.772 19.176 112.684 19.176H108.172V26.312H112.684ZM126.154 21.16C127.711 21.16 128.884 21.5333 129.674 22.28C130.463 23.0267 130.858 24.0933 130.858 25.48V34.184C130.858 34.504 130.932 34.76 131.082 34.952C131.231 35.1227 131.412 35.208 131.626 35.208H132.618V36.872C132.191 37.1067 131.658 37.224 131.018 37.224C130.399 37.224 129.866 37.0533 129.418 36.712C128.991 36.3707 128.714 35.912 128.586 35.336H128.426C128.02 35.976 127.487 36.4773 126.826 36.84C126.186 37.1813 125.46 37.352 124.65 37.352C123.604 37.352 122.666 37.0427 121.834 36.424C121.002 35.8053 120.586 34.664 120.586 33C120.586 31.016 121.258 29.6613 122.602 28.936C123.946 28.1893 125.887 27.816 128.426 27.816V25.832C128.426 25.0213 128.244 24.4027 127.882 23.976C127.54 23.5493 126.911 23.336 125.994 23.336C125.14 23.336 124.522 23.5707 124.138 24.04C123.775 24.5093 123.594 25.0747 123.594 25.736V26.12H121.226C121.204 26.0133 121.194 25.7893 121.194 25.448C121.194 24.0827 121.642 23.0267 122.538 22.28C123.455 21.5333 124.66 21.16 126.154 21.16ZM128.426 29.992C126.655 29.992 125.322 30.1947 124.426 30.6C123.551 30.984 123.114 31.7307 123.114 32.84C123.114 33.6933 123.284 34.3013 123.626 34.664C123.988 35.0267 124.522 35.208 125.226 35.208C126.058 35.208 126.794 34.8667 127.434 34.184C128.095 33.5013 128.426 32.5627 128.426 31.368V29.992ZM140.456 21.16C141.971 21.16 143.144 21.832 143.976 23.176C144.829 24.4987 145.256 26.536 145.256 29.288C145.256 31.9547 144.819 33.9707 143.944 35.336C143.091 36.68 141.981 37.352 140.616 37.352C139.869 37.352 139.197 37.2027 138.6 36.904C138.024 36.584 137.597 36.1573 137.32 35.624H137.192V42.088H134.76V21.512H136.584L136.936 23.336H137.064C137.427 22.632 137.896 22.0987 138.472 21.736C139.069 21.352 139.731 21.16 140.456 21.16ZM139.944 23.336C138.109 23.336 137.192 25.128 137.192 28.712V29.8C137.192 33.4053 138.109 35.208 139.944 35.208C140.883 35.208 141.576 34.7813 142.024 33.928C142.493 33.0747 142.728 31.6987 142.728 29.8V28.712C142.728 26.8133 142.493 25.448 142.024 24.616C141.576 23.7627 140.883 23.336 139.944 23.336ZM153.446 21.16C155.196 21.16 156.486 21.736 157.318 22.888C158.15 24.04 158.566 25.896 158.566 28.456V29.992H150.182C150.204 31.784 150.481 33.1067 151.014 33.96C151.569 34.792 152.422 35.208 153.574 35.208C154.342 35.208 154.961 34.8987 155.43 34.28C155.921 33.64 156.166 32.7973 156.166 31.752H158.566C158.566 33.4587 158.097 34.824 157.158 35.848C156.241 36.8507 155.025 37.352 153.51 37.352C151.526 37.352 150.044 36.712 149.062 35.432C148.102 34.152 147.622 32.104 147.622 29.288C147.622 26.5147 148.102 24.4667 149.062 23.144C150.022 21.8213 151.484 21.16 153.446 21.16ZM153.446 23.336C152.401 23.336 151.622 23.7093 151.11 24.456C150.62 25.1813 150.321 26.3013 150.214 27.816H156.038C156.038 24.8293 155.174 23.336 153.446 23.336ZM166.533 21.16C166.789 21.16 167.023 21.192 167.237 21.256C167.45 21.32 167.589 21.3627 167.653 21.384V23.912H166.853C166.021 23.912 165.338 24.2 164.805 24.776C164.271 25.352 164.005 26.28 164.005 27.56V37H161.573V21.512H163.397L163.749 23.56H163.909C164.122 22.8773 164.442 22.312 164.869 21.864C165.295 21.3947 165.85 21.16 166.533 21.16Z" fill="white"/>
</svg>
