<svg width="100" height="100" viewBox="0 0 100 100" fill="none" xmlns="http://www.w3.org/2000/svg">
<path d="M39.4176 90.6901C42.9214 92.079 46.2358 92.7734 49.3608 92.7734C67.1638 92.7734 76.0653 85.5035 76.0653 70.9635C76.0653 66.0156 75.0947 62.1094 73.1534 59.2448C71.875 57.3351 70.419 55.7292 68.7855 54.4271C67.152 53.125 65.554 52.1159 63.9915 51.3997C62.429 50.6836 60.5232 50.1411 58.2741 49.7721C56.0251 49.4032 54.0365 49.1753 52.3082 49.0885C50.58 49.0017 48.3428 48.9583 45.5966 48.9583C42.1402 48.9583 39.7491 49.1753 38.4233 49.6094C38.4233 51.9097 38.4115 55.3602 38.3878 59.9609C38.3641 64.5616 38.3523 67.9904 38.3523 70.2474C38.3523 70.5946 38.3286 72.0595 38.2812 74.6419C38.2339 77.2244 38.2221 79.3186 38.2457 80.9245C38.2694 82.5304 38.3759 84.3424 38.5653 86.3607C38.7547 88.3789 39.0388 89.822 39.4176 90.6901ZM38.4233 42.1224C40.4119 42.4262 42.9924 42.5781 46.1648 42.5781C50.0473 42.5781 53.4328 42.296 56.321 41.7318C59.2093 41.1675 61.8134 40.2018 64.1335 38.8346C66.4536 37.4674 68.2173 35.5252 69.4247 33.0078C70.6321 30.4905 71.2358 27.4089 71.2358 23.763C71.2358 20.7248 70.5492 18.0664 69.1761 15.7878C67.803 13.5091 65.9328 11.7296 63.5653 10.4492C61.1979 9.16884 58.6411 8.22483 55.8949 7.61719C53.1487 7.00955 50.2131 6.70573 47.0881 6.70573C44.7206 6.70573 41.643 6.98785 37.8551 7.55208C37.8551 9.72222 37.9498 12.9991 38.1392 17.3828C38.3286 21.7665 38.4233 25.0651 38.4233 27.2786C38.4233 28.4505 38.4115 30.1866 38.3878 32.487C38.3641 34.7873 38.3523 36.5017 38.3523 37.6302C38.3523 39.6267 38.3759 41.1241 38.4233 42.1224ZM0 100L0.142045 93.8802C0.852273 93.7066 2.86458 93.3594 6.17898 92.8385C9.49337 92.3177 12.0028 91.7318 13.7074 91.0807C14.0388 90.5599 14.3348 89.974 14.5952 89.3229C14.8556 88.6719 15.0568 87.9449 15.1989 87.1419C15.3409 86.339 15.4711 85.6337 15.5895 85.026C15.7079 84.4184 15.7789 83.6046 15.8026 82.5846C15.8262 81.5647 15.8381 80.8268 15.8381 80.3711V76.1068C15.8381 33.4852 15.3172 11.2413 14.2756 9.375C14.0862 9.02778 13.5653 8.71311 12.7131 8.43099C11.8608 8.14887 10.8073 7.91016 9.55256 7.71484C8.29782 7.51953 7.12595 7.36762 6.03693 7.25911C4.94792 7.15061 3.79972 7.05295 2.59233 6.96615C1.38494 6.87934 0.662879 6.81424 0.426136 6.77083L0.142045 1.36719C4.7822 1.28038 12.8314 1.03082 24.2898 0.61849C35.7481 0.206163 44.5786 0 50.7812 0C51.8703 0 53.492 0.0108507 55.6463 0.0325521C57.8007 0.0542535 59.3987 0.0651042 60.4403 0.0651042C63.7547 0.0651042 66.9863 0.347222 70.1349 0.911458C73.2836 1.47569 76.3258 2.38715 79.2614 3.64583C82.197 4.90451 84.7538 6.44531 86.9318 8.26823C89.1098 10.0911 90.8617 12.3589 92.1875 15.0716C93.5133 17.7843 94.1761 20.7682 94.1761 24.0234C94.1761 26.2804 93.7855 28.3529 93.0043 30.2409C92.223 32.1289 91.2997 33.6914 90.2344 34.9284C89.169 36.1654 87.642 37.4132 85.6534 38.6719C83.6648 39.9306 81.9366 40.9071 80.4687 41.6016C79.0009 42.296 77.0123 43.1641 74.5028 44.2057C81.7945 45.7248 87.8669 48.6328 92.7202 52.9297C97.5734 57.2266 100 62.6085 100 69.0755C100 73.4158 99.1714 77.3112 97.5142 80.7617C95.857 84.2122 93.6435 87.0443 90.8736 89.2578C88.1037 91.4714 84.8366 93.3268 81.0724 94.8242C77.3082 96.3216 73.4375 97.3741 69.4602 97.9818C65.483 98.5894 61.3163 98.8932 56.9602 98.8932C54.8769 98.8932 51.7519 98.8281 47.5852 98.6979C43.4186 98.5677 40.2936 98.5026 38.2102 98.5026C33.1913 98.5026 25.9233 98.7413 16.4062 99.2187C6.8892 99.6962 1.42045 99.9566 0 100Z" fill="black"/>
</svg>
