<svg width="100" height="109" viewBox="0 0 100 109" fill="none" xmlns="http://www.w3.org/2000/svg">
<path d="M34.5316 2.97786L35.5988 0H100L98.7318 2.97786C92.8954 2.97786 88.4389 4.04428 85.3622 6.19188C82.2899 8.3321 79.5704 12.8081 77.2439 19.6125L53.1258 89.3838C51.3664 94.3137 50.4957 97.6125 50.4957 99.2731C50.4957 101.203 51.4066 102.708 53.2152 103.782C55.5417 105.173 59.967 105.923 66.4508 106.026L65.4684 109H0L1.07172 106.026C7.62258 106.026 12.4185 104.993 15.4729 102.934C18.5228 100.863 21.278 96.3542 23.743 89.3838L48.062 19.6125C49.549 15.3247 50.2992 12.0812 50.2992 9.8893C50.2992 7.90775 49.3927 6.35055 47.5797 5.21771C45.7489 4.09594 41.404 3.35424 34.5316 2.97786Z" fill="black"/>
</svg>
